# File created by Blade
# Date/Time:  Tue Sep 30 19:28:49 2014
#---------------------------------------------------------
:version 1.10
:name HOM
:units
  mass 1.0
  length 1.000000
  angle deg
:documentation
     Acclaim Skeleton File
:root
   axis xyz
   order TX TY TZ RX RY RZ
   position 0.000000 0.000000 0.000000
   orientation 0 0 0
:bonedata
   begin
      id 1
      name RightUpLeg_dum
      direction -1.000000 0.000000 0.000000
      length 3.766986
      axis 0.0 0.0 0.0 xyz
   end
   begin
      id 2
      name LeftUpLeg_dum
      direction 1.000000 0.000000 0.000000
      length 3.766986
      axis 0.0 0.0 0.0 xyz
   end
   begin
      id 3
      name Spine_dum
      direction 0.000000 1.000000 0.000000
      length 7.779697
      axis 0.0 0.0 0.0 xyz
   end
   begin
      id 4
      name RightUpLeg
      direction 0.000000 -1.000000 0.000000
      length 18.017682
      axis 0.0 0.0 0.0 xyz
      dof rx ry rz
   end
   begin
      id 5
      name RightLeg
      direction 0.000000 -1.000000 0.000000
      length 16.881075
      axis 0.0 0.0 0.0 xyz
      dof rx ry rz
   end
   begin
      id 6
      name RightFoot
      direction 0.000000 -0.258819 0.965926
      length 5.770812
      axis 15.0 0.0 0.0 xyz
      dof rx ry rz
   end
   begin
      id 7
      name RightToeBase
      direction 0.000000 0.000000 1.000000
      length 2.952750
      axis 0.0 0.0 0.0 xyz
      dof rx ry rz
   end
   begin
      id 8
      name LeftUpLeg
      direction 0.000000 -1.000000 0.000000
      length 18.017682
      axis 0.0 0.0 0.0 xyz
      dof rx ry rz
   end
   begin
      id 9
      name LeftLeg
      direction 0.000000 -1.000000 0.000000
      length 16.881075
      axis 0.0 0.0 0.0 xyz
      dof rx ry rz
   end
   begin
      id 10
      name LeftFoot
      direction 0.000000 -0.258819 0.965926
      length 5.770812
      axis 15.0 0.0 0.0 xyz
      dof rx ry rz
   end
   begin
      id 11
      name LeftToeBase
      direction 0.000000 0.000000 1.000000
      length 2.952750
      axis 0.0 0.0 0.0 xyz
      dof rx ry rz
   end
   begin
      id 12
      name Spine
      direction 0.000000 1.000000 0.000000
      length 0.000000
      axis 0.0 0.0 0.0 xyz
      dof rx ry rz
   end
   begin
      id 13
      name Spine_dum1
      direction 0.000000 1.000000 0.000000
      length 10.941760
      axis 0.0 0.0 0.0 xyz
   end
   begin
      id 14
      name Spine_dum2
      direction 0.000000 1.000000 0.000000
      length 10.941760
      axis 0.0 0.0 0.0 xyz
   end
   begin
      id 15
      name Spine_dum3
      direction 0.000000 1.000000 0.000000
      length 16.646042
      axis 0.0 0.0 0.0 xyz
   end
   begin
      id 16
      name RightShoulder
      direction -1.000000 0.000000 0.000000
      length 7.708937
      axis 0.0 0.0 90.0 xyz
      dof rx ry rz
   end
   begin
      id 17
      name RightArm
      direction -1.000000 0.000000 0.000000
      length 11.521345
      axis 0.0 0.0 90.0 xyz
      dof rx ry rz
   end
   begin
      id 18
      name RightForeArm
      direction -1.000000 0.000000 0.000000
      length 10.175898
      axis 0.0 0.0 90.0 xyz
      dof ry rz rx
   end
   begin
      id 19
      name RightHand
      direction -1.000000 0.000000 0.000000
      length 0.000000
      axis 0.0 0.0 90.0 xyz
      dof rx ry rz
   end
   begin
      id 20
      name RightHand_dum1
      direction -1.000000 0.000000 0.000000
      length 3.937000
      axis 0.0 0.0 90.0 xyz
   end
   begin
      id 21
      name RightHand_dum2
      direction 0.000000 0.000000 0.000000
      length 0.000000
      axis 0.0 0.0 90.0 xyz
   end
   begin
      id 22
      name RightHandThumb1
      direction 0.000000 0.000000 1.000000
      length 3.937000
      axis 0.0 0.0 90.0 xyz
      dof rx rz ry
   end
   begin
      id 23
      name LeftShoulder
      direction 1.000000 0.000000 0.000000
      length 7.708937
      axis 0.0 0.0 -90.0 xyz
      dof rx ry rz
   end
   begin
      id 24
      name LeftArm
      direction 1.000000 0.000000 0.000000
      length 11.521345
      axis 0.0 0.0 -90.0 xyz
      dof rx ry rz
   end
   begin
      id 25
      name LeftForeArm
      direction 1.000000 0.000000 0.000000
      length 10.175898
      axis 0.0 0.0 -90.0 xyz
      dof ry rz rx
   end
   begin
      id 26
      name LeftHand
      direction 1.000000 0.000000 0.000000
      length 0.000000
      axis 0.0 0.0 -90.0 xyz
      dof rx ry rz
   end
   begin
      id 27
      name LeftHand_dum1
      direction 1.000000 0.000000 0.000000
      length 3.937000
      axis 0.0 0.0 -90.0 xyz
   end
   begin
      id 28
      name LeftHand_dum2
      direction 0.000000 0.000000 0.000000
      length 0.000000
      axis 0.0 0.0 -90.0 xyz
   end
   begin
      id 29
      name LeftHandThumb1
      direction 0.000000 0.000000 1.000000
      length 3.937000
      axis 0.0 0.0 -90.0 xyz
      dof rx rz ry
   end
   begin
      id 30
      name Head
      direction 0.000000 1.000000 0.000000
      length 4.527550
      axis 0.0 0.0 0.0 xyz
      dof rx ry rz
   end
:hierarchy
   begin
      root RightUpLeg_dum LeftUpLeg_dum Spine_dum
      RightUpLeg_dum RightUpLeg
      LeftUpLeg_dum LeftUpLeg
      Spine_dum Spine
      RightUpLeg RightLeg
      RightLeg RightFoot
      RightFoot RightToeBase
      LeftUpLeg LeftLeg
      LeftLeg LeftFoot
      LeftFoot LeftToeBase
      Spine Spine_dum1 Spine_dum2 Spine_dum3
      Spine_dum1 RightShoulder
      Spine_dum2 LeftShoulder
      Spine_dum3 Head
      RightShoulder RightArm
      RightArm RightForeArm
      RightForeArm RightHand
      RightHand RightHand_dum1 RightHand_dum2
      RightHand_dum2 RightHandThumb1
      LeftShoulder LeftArm
      LeftArm LeftForeArm
      LeftForeArm LeftHand
      LeftHand LeftHand_dum1 LeftHand_dum2
      LeftHand_dum2 LeftHandThumb1
   end

# File created by Blade
# Date/Time:  Mon Sep 22 15:50:36 2014
# Frame Rate: 120.000 fps
#------------------------------------------------------
:FULLY-SPECIFIED
:DEGREES
870
root 2.398838 36.954025 3.835351 -3.306469 -11.794590 1.259661
RightUpLeg 10.825203 0.767297 -3.982945
RightLeg -4.538538 -0.000000 0.000000
RightFoot -12.373067 -13.136965 15.301596
RightToeBase 14.681938 -0.000000 -0.000000
LeftUpLeg 13.264504 9.083335 1.758386
LeftLeg -4.079113 -0.000000 0.000000
LeftFoot -11.647998 15.173080 -17.831376
LeftToeBase 9.065146 -0.000000 -0.000000
Spine -2.260790 -34.036498 -1.952825
RightShoulder 11.800304 -24.149091 -9.537377
RightArm 30.004132 -34.171333 57.239618
RightForeArm 13.736944 -0.000000 22.779153
RightHand 2.045007 -0.000000 1.889564
RightHandThumb1 -24.326973 -0.000000 -32.862282
LeftShoulder 9.490807 11.950283 23.741958
LeftArm 86.445144 -7.943097 -97.080561
LeftForeArm -64.844933 -0.000000 13.412703
LeftHand -25.813423 -0.000000 16.147751
LeftHandThumb1 -26.253704 0.000000 33.147579
Head 1.852862 28.039228 9.205126
871
root 2.392534 36.953400 3.834694 -3.291192 -11.712710 1.248247
RightUpLeg 10.860130 0.775808 -3.954550
RightLeg -4.603909 -0.000000 0.000000
RightFoot -12.365838 -13.215204 15.344065
RightToeBase 14.671609 -0.000000 -0.000000
LeftUpLeg 13.234458 9.050740 1.781914
LeftLeg -4.066788 -0.000000 0.000000
LeftFoot -11.687059 15.135897 -17.893384
LeftToeBase 9.174639 -0.000000 -0.000000
Spine -2.252856 -33.907986 -1.997218
RightShoulder 11.786214 -24.200075 -9.545347
RightArm 29.844463 -34.138751 57.407136
RightForeArm 13.676706 -0.000000 22.563301
RightHand 1.925953 -0.000000 1.927515
RightHandThumb1 -24.326973 -0.000000 -32.862282
LeftShoulder 9.428871 11.978929 23.686266
LeftArm 86.504592 -7.813894 -97.063112
LeftForeArm -64.863240 0.000000 14.737863
LeftHand -25.554869 0.000000 16.051738
LeftHandThumb1 -26.253704 0.000000 33.147579
Head 2.073815 27.839685 9.341736
872
root 2.386592 36.952883 3.836293 -3.300004 -11.628159 1.241438
RightUpLeg 10.900487 0.731316 -3.938343
RightLeg -4.625697 -0.000000 0.000000
RightFoot -12.379524 -13.240476 15.368097
RightToeBase 14.673544 -0.000000 -0.000000
LeftUpLeg 13.230980 9.040450 1.805645
LeftLeg -4.050192 -0.000000 0.000000
LeftFoot -11.684534 15.074884 -17.880168
LeftToeBase 9.194904 -0.000000 -0.000000
Spine -2.210869 -33.794178 -2.055029
RightShoulder 11.793024 -24.217687 -9.562151
RightArm 29.643314 -34.094592 57.598244
RightForeArm 13.657401 -0.000000 22.385272
RightHand 1.905657 -0.000000 1.967542
RightHandThumb1 -24.326973 -0.000000 -32.862282
LeftShoulder 9.391700 12.035548 23.632742
LeftArm 86.550739 -7.721470 -97.093131
LeftForeArm -65.019155 0.000000 16.213703
LeftHand -25.161948 -0.000000 16.233773
LeftHandThumb1 -26.253704 0.000000 33.147579
Head 2.231408 27.640113 9.437652
873
root 2.385635 36.951727 3.833670 -3.302660 -11.547887 1.246781
RightUpLeg 10.913407 0.669314 -3.941539
RightLeg -4.627032 -0.000000 0.000000
RightFoot -12.387954 -13.266790 15.334509
RightToeBase 14.657659 -0.000000 -0.000000
LeftUpLeg 13.205247 8.991237 1.799232
LeftLeg -4.025611 -0.000000 0.000000
LeftFoot -11.695749 15.058460 -17.870949
LeftToeBase 9.215409 -0.000000 -0.000000
Spine -2.166407 -33.674629 -2.122877
RightShoulder 11.800951 -24.217445 -9.573218
RightArm 29.415790 -34.005477 57.805412
RightForeArm 13.666778 -0.000000 22.260916
RightHand 1.858460 -0.000000 2.106035
RightHandThumb1 -24.326973 -0.000000 -32.862282
LeftShoulder 9.368691 12.091279 23.605597
LeftArm 86.625892 -7.652216 -97.097209
LeftForeArm -65.131265 -0.000000 17.618950
LeftHand -24.939246 -0.000000 16.176189
LeftHandThumb1 -26.253704 0.000000 33.147579
Head 2.405609 27.437104 9.542490
874
root 2.381088 36.950363 3.834699 -3.316994 -11.476097 1.243375
RightUpLeg 10.952085 0.628487 -3.931819
RightLeg -4.640448 -0.000000 0.000000
RightFoot -12.407692 -13.293523 15.334918
RightToeBase 14.670311 -0.000000 -0.000000
LeftUpLeg 13.220623 8.942293 1.810744
LeftLeg -4.034895 -0.000000 0.000000
LeftFoot -11.688382 15.042415 -17.847941
LeftToeBase 9.174694 -0.000000 -0.000000
Spine -2.116842 -33.574513 -2.186778
RightShoulder 11.819603 -24.246476 -9.606722
RightArm 29.274017 -33.998373 57.926580
RightForeArm 13.802014 -0.000000 22.162926
RightHand 1.836322 -0.000000 2.057677
RightHandThumb1 -24.326973 -0.000000 -32.862282
LeftShoulder 9.313935 12.189504 23.583707
LeftArm 86.675627 -7.598672 -97.033463
LeftForeArm -65.306640 -0.000000 19.042522
LeftHand -25.122595 -0.000000 15.137699
LeftHandThumb1 -26.253704 0.000000 33.147579
Head 2.586500 27.279019 9.639097
875
root 2.376393 36.948586 3.836574 -3.339877 -11.419116 1.231123
RightUpLeg 10.993907 0.594024 -3.912117
RightLeg -4.644379 -0.000000 0.000000
RightFoot -12.417000 -13.315238 15.301298
RightToeBase 14.658687 -0.000000 -0.000000
LeftUpLeg 13.252146 8.915805 1.839309
LeftLeg -4.050859 -0.000000 0.000000
LeftFoot -11.685413 14.998306 -17.863293
LeftToeBase 9.201675 -0.000000 -0.000000
Spine -2.045539 -33.470491 -2.242894
RightShoulder 11.818254 -24.295361 -9.627674
RightArm 29.162801 -33.920496 58.017658
RightForeArm 13.674531 -0.000000 22.121202
RightHand 1.750258 -0.000000 2.210081
RightHandThumb1 -24.326973 -0.000000 -32.862282
LeftShoulder 9.286427 12.234391 23.556100
LeftArm 86.693364 -7.553302 -97.224497
LeftForeArm -65.562004 -0.000000 20.553648
LeftHand -24.696488 -0.000000 15.094816
LeftHandThumb1 -26.253704 0.000000 33.147579
Head 2.712808 27.089658 9.717537
876
root 2.372046 36.947590 3.837556 -3.354725 -11.367991 1.223687
RightUpLeg 11.022273 0.569906 -3.898045
RightLeg -4.639231 -0.000000 0.000000
RightFoot -12.462120 -13.326557 15.373540
RightToeBase 14.721387 -0.000000 -0.000000
LeftUpLeg 13.265537 8.886293 1.856919
LeftLeg -4.044861 -0.000000 0.000000
LeftFoot -11.648831 14.964940 -17.792923
LeftToeBase 9.082844 -0.000000 -0.000000
Spine -1.994109 -33.393084 -2.294905
RightShoulder 11.840578 -24.324595 -9.659093
RightArm 29.083406 -33.930937 58.048236
RightForeArm 13.768035 -0.000000 22.098243
RightHand 1.738995 0.000000 2.236506
RightHandThumb1 -24.326973 -0.000000 -32.862282
LeftShoulder 9.243617 12.318344 23.487972
LeftArm 86.715672 -7.538999 -97.345445
LeftForeArm -65.682816 -0.000000 22.124889
LeftHand -24.478692 -0.000000 14.997348
LeftHandThumb1 -26.253704 0.000000 33.147579
Head 2.863657 26.930111 9.804500
877
root 2.366834 36.946375 3.838976 -3.370088 -11.321843 1.216678
RightUpLeg 11.049101 0.555364 -3.881763
RightLeg -4.636076 -0.000000 0.000000
RightFoot -12.460023 -13.347496 15.335149
RightToeBase 14.651356 -0.000000 -0.000000
LeftUpLeg 13.276882 8.845923 1.875830
LeftLeg -4.041534 -0.000000 0.000000
LeftFoot -11.692738 14.945947 -17.866374
LeftToeBase 9.172278 -0.000000 -0.000000
Spine -1.944982 -33.311565 -2.351009
RightShoulder 11.845370 -24.366744 -9.683105
RightArm 29.020231 -33.936968 58.059234
RightForeArm 13.832261 -0.000000 22.120544
RightHand 1.783021 -0.000000 2.271989
RightHandThumb1 -24.326973 -0.000000 -32.862282
LeftShoulder 9.209699 12.461063 23.431228
LeftArm 86.774496 -7.522982 -97.487482
LeftForeArm -65.776867 -0.000000 23.757485
LeftHand -24.302602 0.000000 14.754980
LeftHandThumb1 -26.253704 0.000000 33.147579
Head 3.014107 26.778796 9.915103
878
root 2.361417 36.945590 3.839143 -3.382829 -11.289420 1.209752
RightUpLeg 11.068546 0.532088 -3.866508
RightLeg -4.630659 -0.000000 0.000000
RightFoot -12.466430 -13.369403 15.300940
RightToeBase 14.622829 -0.000000 -0.000000
LeftUpLeg 13.288512 8.802226 1.890669
LeftLeg -4.038337 -0.000000 0.000000
LeftFoot -11.717645 14.932898 -17.899222
LeftToeBase 9.237668 -0.000000 -0.000000
Spine -1.886696 -33.224266 -2.414683
RightShoulder 11.835862 -24.366061 -9.675478
RightArm 28.931986 -33.971939 58.056354
RightForeArm 13.853860 -0.000000 22.184957
RightHand 1.797540 -0.000000 2.246734
RightHandThumb1 -24.326973 -0.000000 -32.862282
LeftShoulder 9.167489 12.613791 23.378187
LeftArm 86.839937 -7.504717 -97.638108
LeftForeArm -65.896626 -0.000000 25.428081
LeftHand -23.973005 -0.000000 14.452523
LeftHandThumb1 -26.253704 0.000000 33.147579
Head 3.145517 26.620059 10.057484
